<?xml version="1.0" encoding="utf-8"?>
<svg xmlns="http://www.w3.org/2000/svg" height="32" width="32" viewBox="0 0 32 32">
  <g>
    <path id="path1" transform="rotate(0,16,16) translate(2.85665881613563,2) scale(0.875000365078602,0.875000365078602)  " fill="#000000" d="M15.162868,0L23.141662,7.868011C23.534652,8.2560115 23.538651,8.8890128 23.149662,9.2830129 22.954667,9.4810128 22.695674,9.5800138 22.43768,9.5800138 22.183686,9.5800138 21.929693,9.4840131 21.733698,9.2910132L16.122957,3.7586763 16.122957,16.888661 29.74325,30.287032C30.137261,30.675023 30.142262,31.308005 29.75325,31.701994 29.557244,31.899989 29.299236,31.999987 29.040229,31.999987 28.786221,31.999987 28.532213,31.903988 28.337207,31.711995L15.020956,18.611769 1.7047043,31.711995C1.5096979,31.903988 1.2556906,31.999987 1.0016823,31.999987 0.74267483,31.999987 0.48466682,31.899989 0.28866005,31.701994 -0.10035133,31.308005 -0.095351219,30.675023 0.29866123,30.287032L14.120957,16.68995 14.120957,3.8395171 8.735034,9.1510129C8.3420444,9.5390134 7.7070608,9.5360131 7.3190708,9.1420131 6.9300809,8.7490125 6.9340806,8.1150112 7.3280706,7.7270107z" />
  </g>
</svg>

