<?xml version="1.0" encoding="utf-8"?>
<svg xmlns="http://www.w3.org/2000/svg" height="32" width="32" viewBox="0 0 32 32">
  <g>
    <path id="path1" transform="rotate(0,16,16) translate(2,2) scale(0.875,0.875)  " fill="#000000" d="M26.580956,6.8329883L6.8329535,26.581059 6.8670793,26.611267C9.4062033,28.804157 12.611519,30 16,30 19.738998,30 23.25499,28.543945 25.898987,25.898926 28.542999,23.255005 30,19.739014 30,16 30,12.611519 28.803381,9.4062033 26.611095,6.8670454z M16,2C12.260986,2 8.7449951,3.4559326 6.1009979,6.1009521 3.4570007,8.7449951 2,12.260986 2,16 2,19.388481 3.1966188,22.593796 5.3888941,25.132864L5.4190583,25.166948 25.167076,5.4188623 25.132906,5.3886132C22.593781,3.1957417,19.388468,2,16,2z M16,0C20.272995,0 24.291992,1.6639404 27.312988,4.6870117 30.334991,7.7080078 32,11.726929 32,16 32,20.272949 30.334991,24.291992 27.312988,27.312988 24.291992,30.335938 20.272995,32 16,32 11.72699,32 7.7079926,30.335938 4.6869965,27.312988 1.6649933,24.291992 0,20.272949 0,16 0,11.726929 1.6649933,7.7080078 4.6869965,4.6870117 7.7079926,1.6639404 11.72699,0 16,0z" />
  </g>
</svg>

