<?xml version="1.0" encoding="utf-8"?>
<svg xmlns="http://www.w3.org/2000/svg" height="32" width="32" viewBox="0 0 32 32">
  <g>
    <path id="path1" transform="rotate(0,16,16) translate(2,2.03119275305895) scale(0.879010272280029,0.879010272280029)  " fill="#000000" d="M15.240242,12.575481L15.101102,12.817196C14.536455,13.745528,13.797837,14.556897,12.930857,15.205694L12.786991,15.308075 26.846863,29.368015 29.439774,26.776119z M7.8831644,1.999999C5.7992129,1.999999,3.895257,2.9899988,2.699285,4.6149979L7.2741787,4.6149979C7.8271658,4.6149979,8.2741556,5.0629973,8.2741556,5.6149969L8.2741556,11.340994C8.2741556,11.893994,7.8271658,12.340993,7.2741787,12.340993L2.7512836,12.340993C3.9512558,13.921992 5.8342123,14.884992 7.8831644,14.884992 8.771394,14.884992 9.6181244,14.704367 10.388591,14.37793L10.650349,14.259401 10.73112,14.213237C12.248061,13.463243,13.431084,12.117185,13.976058,10.520275L13.994575,10.475713 14.03499,10.356488C14.223452,9.7517213 14.325016,9.1089951 14.325016,8.4429957 14.325016,4.8899975 11.436082,1.999999 7.8831644,1.999999z M7.8831644,0C12.538057,0 16.324969,3.7869983 16.324969,8.4429957 16.324969,9.1703389 16.232515,9.8764908 16.058742,10.550317L16.055604,10.561885 31.56077,26.069094C31.951754,26.459105,31.951754,27.092155,31.56077,27.483145L27.554798,31.490068C27.366812,31.677078 27.11285,31.783035 26.846863,31.783035 26.581854,31.783035 26.327829,31.677078 26.139845,31.490068L10.954812,16.30395 10.782781,16.371904C9.8781457,16.703777 8.9014223,16.884991 7.8831644,16.884991 4.4832435,16.884991 1.4313145,14.861992 0.10534477,11.730993 -0.024652481,11.421994 0.0083475113,11.068994 0.19234276,10.787994 0.37833881,10.508994 0.69133091,10.340994 1.0263233,10.340995L6.2742019,10.340995 6.2742019,6.6149964 1.0003242,6.6149964C0.6673317,6.6149967 0.35533905,6.4489965 0.16934299,6.1719966 -0.016652107,5.8949969 -0.051651001,5.5439973 0.075345993,5.2359972 1.3823156,2.0549994 4.4462442,0 7.8831644,0z" />
  </g>
</svg>

