<?xml version="1.0" encoding="utf-8"?>
<svg xmlns="http://www.w3.org/2000/svg" height="32" width="32" viewBox="0 0 32 32">
  <g>
    <path id="path1" transform="rotate(0,16,16) translate(2.87496307605819,2) scale(0.874973089330548,0.874973089330548)  " fill="#000000" d="M28.977724,8.2862492C29.298732,8.2791591 29.617639,8.4270506 29.817016,8.7089272 30.136018,9.1599298 30.030017,9.7839336 29.578013,10.101935L11.01292,23.248011 6.2928958,18.516983C5.902894,18.125982 5.9038939,17.492978 6.2948961,17.101975 6.6848979,16.711973 7.3189011,16.712974 7.7089033,17.103975L11.235921,20.639996 28.423009,8.4709258C28.59176,8.3505502,28.78512,8.290503,28.977724,8.2862492z M11.010003,2.4999998C11.562003,2.5 12.010003,2.948 12.010003,3.5000001 12.010003,4.052 11.562003,4.5 11.010003,4.5 10.458004,4.5 10.010004,4.052 10.010004,3.5000001 10.010004,2.948 10.458004,2.5 11.010003,2.4999998z M9.5723109,2.0000001L8.1423721,5 13.893126,5 12.504185,2.0000001z M9.0043354,0L13.079162,0C13.510143,0,13.904126,0.25300002,14.081118,0.64599979L14.708301,2.0000039 20.000013,2.0000039C21.103009,2.0000038,22.000011,2.8970068,22.000011,4.0000036L22.000011,10.567019 20.000013,11.983004 20.000013,4.0000036 15.634713,4.0000036 16.531014,5.9349997 16.229027,6.4920001C16.026036,6.8099999,15.68005,7,15.302067,7L6.1644568,7 5.7864728,6.4860001C5.5834818,6.165,5.5604825,5.7690001,5.7244754,5.4260004L6.4035478,4.0009863 2,4.0009863 2,30.000986 20,30.000986 20,19.334986 22,17.918986 22,30.000986C22,31.103987,21.103,32.000986,20,32.000986L2,32.000986C0.89699936,32.000986,0,31.103987,0,30.000986L0,4.0009863C0,2.8979864,0.89699936,2.0009864,2,2.0009862L7.3566222,2.0009862 8.0113778,0.62700009C8.1923699,0.24600005,8.5813537,0,9.0043354,0z" />
  </g>
</svg>

