<svg width="768.051" height="768.05" xmlns="http://www.w3.org/2000/svg">

 <g>
  <title>background</title>
  <rect fill="none" id="canvas_background" height="770.05" width="770.051" y="-1" x="-1"/>
 </g>
 <g>
  <title>Layer 1</title>
  <path stroke="null" id="svg_1" d="m655.191666,345.469c11.859464,81.719 -13.044911,167.781 -76.71151,230.594c-94.064777,92.938 -239.186671,104.375 -345.92185,34.562l74.777044,-73l-274.82898,-38.375l38.356754,268.75l83.921065,-80.5c150.709574,111.25 364.460565,100.75 501.406169,-34.562c79.395993,-78.438 115.598568,-182.562 111.104456,-285.312l-112.103147,-22.157zm-465.391348,-153.407c94.032819,-92.938 239.124752,-104.438 345.859931,-34.562l-74.90188,72.969l274.827981,38.406l-38.324795,-268.875l-83.828187,80.688c-150.739535,-111.344 -364.428607,-100.719 -501.406169,34.562c-79.395993,78.406 -115.56661,182.531 -111.104456,285.25l112.103147,22.125c-11.859464,-81.75 13.107829,-167.719 76.774427,-230.563z"/>
 </g>
</svg>