<?xml version="1.0" encoding="utf-8"?>
<svg xmlns="http://www.w3.org/2000/svg" height="32" width="32" viewBox="0 0 32 32">
  <g>
    <path id="path1" transform="rotate(0,16,16) translate(2,5.50000792741492) scale(0.874999687075727,0.874999687075727)  " fill="#000000" d="M7.1998558,4.1550458C7.4237766,4.1577906 7.647974,4.2354458 7.8321648,4.3911938 8.2541733,4.7481893 8.3071747,5.3791813 7.9511671,5.8001757L2.629055,12.090096 7.946167,18.278018C8.3051748,18.697012 8.2571735,19.327004 7.8381653,19.687999 7.6501617,19.849997 7.4181557,19.928997 7.187151,19.928997 6.9061451,19.928997 6.6261387,19.810997 6.4281349,19.58L0,12.099096 6.4231358,4.5091924C6.6245155,4.2718204,6.9119587,4.1515172,7.1998558,4.1550458z M24.799789,4.1550325C25.087939,4.1513976,25.375133,4.2714521,25.575945,4.5082545L32.000013,12.099117 25.57094,19.579966C25.37294,19.81098 25.092908,19.928958 24.811961,19.928958 24.580941,19.928958 24.348944,19.849981 24.160954,19.687966 23.741944,19.32698 23.693909,18.69601 24.052921,18.278018L29.370961,12.090115 24.047915,5.8012295C23.691895,5.3792406 23.744935,4.7482404 24.165898,4.3912524 24.350977,4.2355107 24.575672,4.1578593 24.799789,4.1550325z M19.59859,0.00014400482C19.696917,0.0018253326 19.796641,0.018243313 19.894888,0.050868511 20.419875,0.22386956 20.704868,0.78987241 20.532872,1.3138747L13.293056,23.312987C13.154059,23.732989 12.763069,23.999991 12.34308,23.999991 12.239082,23.999991 12.134086,23.98399 12.031088,23.94999 11.506102,23.776989 11.221108,23.211987 11.393104,22.687983L18.63292,0.68887162C18.772667,0.26230717,19.172508,-0.0071396828,19.59859,0.00014400482z" />
  </g>
</svg>

