<?xml version="1.0" encoding="utf-8"?>
<svg xmlns="http://www.w3.org/2000/svg" height="32" width="32" viewBox="0 0 32 32">
  <g>
    <path id="path1" transform="rotate(0,16,16) translate(2,2.00000083446503) scale(0.875,0.875)  " fill="#000000" d="M17.000001,29.999999L31.000001,29.999999C31.552001,29.999999 32.000001,30.447999 32.000001,30.999999 32.000001,31.551999 31.552001,31.999999 31.000001,31.999999L17.000001,31.999999C16.448001,31.999999 16.000001,31.551999 16.000001,30.999999 16.000001,30.447999 16.448001,29.999999 17.000001,29.999999z M9.000001,23.999999L29.000001,23.999999C29.552001,23.999999 30.000001,24.447999 30.000001,24.999999 30.000001,25.551999 29.552001,25.999999 29.000001,25.999999L9.000001,25.999999C8.4480009,25.999999 8.000001,25.551999 8.000001,24.999999 8.000001,24.447999 8.4480009,23.999999 9.000001,23.999999z M17.000001,18L26.000001,18C26.552001,18 27.000001,18.448001 27.000001,19.000001 27.000001,19.552001 26.552001,20.000001 26.000001,20.000001L17.000001,20.000001C16.448001,20.000001 16.000001,19.552001 16.000001,19.000001 16.000001,18.448001 16.448001,18 17.000001,18z M5.000001,12L24.000001,12C24.552001,12 25.000001,12.448 25.000001,13 25.000001,13.552 24.552001,14 24.000001,14L5.000001,14C4.4480009,14 4.000001,13.552 4.000001,13 4.000001,12.448 4.4480009,12 5.000001,12z M3.000001,6.0000007L16.000001,6.0000007C16.552001,6.0000002 17.000001,6.4480004 17.000001,7.0000005 17.000001,7.5520005 16.552001,8.0000005 16.000001,8.0000005L3.000001,8.0000005C2.4480019,8.0000005 2,7.5520005 2,7.0000005 2,6.4480004 2.4480019,6.0000002 3.000001,6.0000007z M27.989596,2.0050593C28.245466,2.0023091 28.502213,2.0970584 28.699214,2.2900572 29.094194,2.6770536 29.101183,3.3090479 28.714198,3.7040445L24.473294,8.0370045C24.099309,8.419003,23.598314,8.6329999,23.064329,8.638001L23.043333,8.638001C22.516337,8.638001,22.020346,8.4350014,21.64337,8.0660052L19.25942,5.7260258C18.865417,5.3390296 18.859405,4.7060349 19.24642,4.3120382 19.633405,3.9170424 20.266387,3.9120423 20.661367,4.2990396L23.04434,6.6380177 27.285244,2.3050566C27.478737,2.108058,27.733728,2.0078089,27.989596,2.0050593z M1,0L10.000001,0C10.552001,2.3841858E-07 11.000001,0.44800031 11.000001,1 11.000001,1.5520003 10.552001,2.0000004 10.000001,2.0000005L1,2.0000005C0.44800186,2.0000004 0,1.5520003 0,1 0,0.44800031 0.44800186,2.3841858E-07 1,0z" />
  </g>
</svg>

